<?xml version="1.0" encoding="UTF-8"?>
<svg xmlns="http://www.w3.org/2000/svg" xmlns:xlink="http://www.w3.org/1999/xlink" width="30px" height="30px" viewBox="0 0 30 30" version="1.1">
<g id="surface1">
<path style=" stroke:none;fill-rule:nonzero;fill:rgb(100%,100%,100%);fill-opacity:1;" d="M 11.398438 1.199219 C 9.75 1.199219 8.398438 2.550781 8.398438 4.199219 C 8.398438 5.851562 9.75 7.199219 11.398438 7.199219 L 13.800781 7.199219 C 14.132812 7.199219 14.398438 6.929688 14.398438 6.601562 L 14.398438 4.199219 C 14.398438 2.550781 13.050781 1.199219 11.398438 1.199219 Z M 18.601562 1.199219 C 16.949219 1.199219 15.601562 2.550781 15.601562 4.199219 L 15.601562 11.398438 C 15.601562 13.050781 16.949219 14.398438 18.601562 14.398438 C 20.25 14.398438 21.601562 13.050781 21.601562 11.398438 L 21.601562 4.199219 C 21.601562 2.550781 20.25 1.199219 18.601562 1.199219 Z M 11.398438 2.398438 C 12.402344 2.398438 13.199219 3.199219 13.199219 4.199219 L 13.199219 6 L 11.398438 6 C 10.398438 6 9.601562 5.199219 9.601562 4.199219 C 9.601562 3.199219 10.398438 2.398438 11.398438 2.398438 Z M 18.601562 2.398438 C 19.601562 2.398438 20.398438 3.199219 20.398438 4.199219 L 20.398438 11.398438 C 20.398438 12.402344 19.601562 13.199219 18.601562 13.199219 C 17.597656 13.199219 16.800781 12.402344 16.800781 11.398438 L 16.800781 4.199219 C 16.800781 3.199219 17.597656 2.398438 18.601562 2.398438 Z M 4.199219 8.398438 C 2.550781 8.398438 1.199219 9.75 1.199219 11.398438 C 1.199219 13.050781 2.550781 14.398438 4.199219 14.398438 L 11.398438 14.398438 C 13.050781 14.398438 14.398438 13.050781 14.398438 11.398438 C 14.398438 9.75 13.050781 8.398438 11.398438 8.398438 Z M 25.800781 8.398438 C 24.148438 8.398438 22.800781 9.75 22.800781 11.398438 L 22.800781 13.800781 C 22.800781 14.132812 23.070312 14.398438 23.398438 14.398438 L 25.800781 14.398438 C 27.449219 14.398438 28.800781 13.050781 28.800781 11.398438 C 28.800781 9.75 27.449219 8.398438 25.800781 8.398438 Z M 4.199219 9.601562 L 11.398438 9.601562 C 12.402344 9.601562 13.199219 10.398438 13.199219 11.398438 C 13.199219 12.402344 12.402344 13.199219 11.398438 13.199219 L 4.199219 13.199219 C 3.199219 13.199219 2.398438 12.402344 2.398438 11.398438 C 2.398438 10.398438 3.199219 9.601562 4.199219 9.601562 Z M 25.800781 9.601562 C 26.800781 9.601562 27.601562 10.398438 27.601562 11.398438 C 27.601562 12.402344 26.800781 13.199219 25.800781 13.199219 L 24 13.199219 L 24 11.398438 C 24 10.398438 24.800781 9.601562 25.800781 9.601562 Z M 4.199219 15.601562 C 2.550781 15.601562 1.199219 16.949219 1.199219 18.601562 C 1.199219 20.25 2.550781 21.601562 4.199219 21.601562 C 5.851562 21.601562 7.199219 20.25 7.199219 18.601562 L 7.199219 16.199219 C 7.199219 15.867188 6.929688 15.601562 6.601562 15.601562 Z M 11.398438 15.601562 C 9.75 15.601562 8.398438 16.949219 8.398438 18.601562 L 8.398438 25.800781 C 8.398438 27.449219 9.75 28.800781 11.398438 28.800781 C 13.050781 28.800781 14.398438 27.449219 14.398438 25.800781 L 14.398438 18.601562 C 14.398438 16.949219 13.050781 15.601562 11.398438 15.601562 Z M 18.601562 15.601562 C 16.949219 15.601562 15.601562 16.949219 15.601562 18.601562 C 15.601562 20.25 16.949219 21.601562 18.601562 21.601562 L 25.800781 21.601562 C 27.449219 21.601562 28.800781 20.25 28.800781 18.601562 C 28.800781 16.949219 27.449219 15.601562 25.800781 15.601562 Z M 4.199219 16.800781 L 6 16.800781 L 6 18.601562 C 6 19.601562 5.199219 20.398438 4.199219 20.398438 C 3.199219 20.398438 2.398438 19.601562 2.398438 18.601562 C 2.398438 17.597656 3.199219 16.800781 4.199219 16.800781 Z M 11.398438 16.800781 C 12.402344 16.800781 13.199219 17.597656 13.199219 18.601562 L 13.199219 25.800781 C 13.199219 26.800781 12.402344 27.601562 11.398438 27.601562 C 10.398438 27.601562 9.601562 26.800781 9.601562 25.800781 L 9.601562 18.601562 C 9.601562 17.597656 10.398438 16.800781 11.398438 16.800781 Z M 18.601562 16.800781 L 25.800781 16.800781 C 26.800781 16.800781 27.601562 17.597656 27.601562 18.601562 C 27.601562 19.601562 26.800781 20.398438 25.800781 20.398438 L 18.601562 20.398438 C 17.597656 20.398438 16.800781 19.601562 16.800781 18.601562 C 16.800781 17.597656 17.597656 16.800781 18.601562 16.800781 Z M 16.199219 22.800781 C 15.867188 22.800781 15.601562 23.070312 15.601562 23.398438 L 15.601562 25.800781 C 15.601562 27.449219 16.949219 28.800781 18.601562 28.800781 C 20.25 28.800781 21.601562 27.449219 21.601562 25.800781 C 21.601562 24.148438 20.25 22.800781 18.601562 22.800781 Z M 16.800781 24 L 18.601562 24 C 19.601562 24 20.398438 24.800781 20.398438 25.800781 C 20.398438 26.800781 19.601562 27.601562 18.601562 27.601562 C 17.597656 27.601562 16.800781 26.800781 16.800781 25.800781 Z M 16.800781 24 "/>
</g>
</svg>
