<?xml version="1.0" encoding="UTF-8"?>
<svg xmlns="http://www.w3.org/2000/svg" xmlns:xlink="http://www.w3.org/1999/xlink" width="30px" height="30px" viewBox="0 0 30 30" version="1.1">
<g id="surface1">
<path style=" stroke:none;fill-rule:nonzero;fill:rgb(100%,100%,100%);fill-opacity:1;" d="M 15 1.800781 C 7.71875 1.800781 1.800781 7.71875 1.800781 15 C 1.800781 21.613281 6.675781 27.082031 13.027344 28.039062 L 13.714844 28.140625 L 13.714844 17.738281 L 10.597656 17.738281 L 10.597656 15.628906 L 13.714844 15.628906 L 13.714844 12.824219 C 13.714844 11.097656 14.132812 9.960938 14.816406 9.246094 C 15.503906 8.53125 16.515625 8.171875 17.925781 8.171875 C 19.054688 8.171875 19.492188 8.242188 19.910156 8.292969 L 19.910156 10.019531 L 18.441406 10.019531 C 17.609375 10.019531 16.925781 10.484375 16.570312 11.105469 C 16.214844 11.722656 16.105469 12.464844 16.105469 13.214844 L 16.105469 15.628906 L 19.78125 15.628906 L 19.453125 17.738281 L 16.105469 17.738281 L 16.105469 28.15625 L 16.789062 28.066406 C 23.230469 27.191406 28.199219 21.675781 28.199219 15 C 28.199219 7.71875 22.28125 1.800781 15 1.800781 Z M 15 3 C 21.632812 3 27 8.367188 27 15 C 27 20.835938 22.820312 25.640625 17.304688 26.71875 L 17.304688 18.9375 L 20.480469 18.9375 L 21.179688 14.425781 L 17.304688 14.425781 L 17.304688 13.214844 C 17.304688 12.59375 17.421875 12.035156 17.613281 11.699219 C 17.804688 11.367188 17.988281 11.222656 18.441406 11.222656 L 21.113281 11.222656 L 21.113281 7.207031 L 20.589844 7.136719 C 20.230469 7.085938 19.410156 6.972656 17.925781 6.972656 C 16.304688 6.972656 14.914062 7.414062 13.953125 8.414062 C 12.992188 9.414062 12.515625 10.902344 12.515625 12.824219 L 12.515625 14.429688 L 9.398438 14.429688 L 9.398438 18.941406 L 12.515625 18.941406 L 12.515625 26.683594 C 7.089844 25.53125 3 20.773438 3 15 C 3 8.367188 8.367188 3 15 3 Z M 15 3 "/>
</g>
</svg>
