<?xml version="1.0" encoding="UTF-8"?>
<svg xmlns="http://www.w3.org/2000/svg" xmlns:xlink="http://www.w3.org/1999/xlink" width="30px" height="30px" viewBox="0 0 30 30" version="1.1">
<g id="surface1">
<path style=" stroke:none;fill-rule:nonzero;fill:rgb(100%,100%,100%);fill-opacity:1;" d="M 14.640625 5.398438 C 10.679688 5.398438 6.960938 5.699219 4.980469 6.121094 C 3.660156 6.417969 2.519531 7.320312 2.28125 8.699219 C 2.042969 10.140625 1.800781 12.300781 1.800781 15 C 1.800781 17.699219 2.039062 19.800781 2.339844 21.300781 C 2.582031 22.621094 3.71875 23.582031 5.039062 23.878906 C 7.140625 24.300781 10.738281 24.601562 14.699219 24.601562 C 18.660156 24.601562 22.257812 24.300781 24.359375 23.878906 C 25.679688 23.582031 26.820312 22.679688 27.058594 21.300781 C 27.300781 19.800781 27.601562 17.640625 27.660156 14.941406 C 27.660156 12.242188 27.359375 10.082031 27.058594 8.582031 C 26.820312 7.261719 25.679688 6.300781 24.359375 6 C 22.257812 5.699219 18.601562 5.398438 14.640625 5.398438 Z M 14.640625 6.601562 C 18.960938 6.601562 22.4375 6.957031 24.121094 7.257812 C 25.019531 7.5 25.738281 8.101562 25.859375 8.878906 C 26.21875 10.800781 26.457031 12.839844 26.457031 14.941406 C 26.398438 17.519531 26.101562 19.621094 25.859375 21.121094 C 25.679688 22.257812 24.480469 22.621094 24.121094 22.742188 C 21.957031 23.160156 18.359375 23.457031 14.757812 23.457031 C 11.160156 23.457031 7.5 23.21875 5.398438 22.742188 C 4.5 22.5 3.78125 21.898438 3.660156 21.121094 C 3.179688 19.4375 3 17.21875 3 15 C 3 12.238281 3.242188 10.199219 3.480469 8.941406 C 3.660156 7.800781 4.917969 7.4375 5.21875 7.320312 C 7.199219 6.898438 10.859375 6.601562 14.640625 6.601562 Z M 11.398438 10.199219 L 11.398438 19.800781 L 19.800781 15 Z M 12.601562 12.242188 L 17.398438 15 L 12.601562 17.757812 Z M 12.601562 12.242188 "/>
</g>
</svg>
